<svg xmlns="http://www.w3.org/2000/svg" viewBox="0 0 32 32" width="32" height="32">
  <defs>
    <linearGradient id="bg" x1="0%" y1="0%" x2="100%" y2="100%">
      <stop offset="0%" style="stop-color:#0d1b2a;stop-opacity:1" />
      <stop offset="100%" style="stop-color:#1a2939;stop-opacity:1" />
    </linearGradient>
    <linearGradient id="blueFlame" x1="0%" y1="0%" x2="100%" y2="100%">
      <stop offset="0%" style="stop-color:#4fc3f7;stop-opacity:1" />
      <stop offset="50%" style="stop-color:#29b6f6;stop-opacity:1" />
      <stop offset="100%" style="stop-color:#0288d1;stop-opacity:1" />
    </linearGradient>
    <linearGradient id="logs" x1="0%" y1="0%" x2="100%" y2="100%">
      <stop offset="0%" style="stop-color:#8d6e63;stop-opacity:1" />
      <stop offset="100%" style="stop-color:#5d4037;stop-opacity:1" />
    </linearGradient>
    <radialGradient id="glow" cx="50%" cy="50%" r="50%">
      <stop offset="0%" style="stop-color:#4fc3f7;stop-opacity:0.6" />
      <stop offset="100%" style="stop-color:#4fc3f7;stop-opacity:0" />
    </radialGradient>
  </defs>
  
  <!-- Background -->
  <rect width="32" height="32" fill="url(#bg)" rx="4"/>
  
  <!-- Glow effect -->
  <circle cx="16" cy="16" r="12" fill="url(#glow)"/>
  
  <!-- Logs -->
  <ellipse cx="16" cy="22" rx="6" ry="2" fill="url(#logs)" stroke="#5d4037" stroke-width="0.5"/>
  <ellipse cx="16" cy="24" rx="5" ry="1.5" fill="url(#logs)" stroke="#5d4037" stroke-width="0.5"/>
  <ellipse cx="16" cy="26" rx="4" ry="1" fill="url(#logs)" stroke="#5d4037" stroke-width="0.5"/>
  
  <!-- Blue flame -->
  <path d="M16 18 Q14 14 16 10 Q18 14 16 18 Z" fill="url(#blueFlame)"/>
  <path d="M16 16 Q15 12 16 8 Q17 12 16 16 Z" fill="#29b6f6"/>
  <path d="M16 14 Q15.5 10 16 6 Q16.5 10 16 14 Z" fill="#4fc3f7"/>
  
  <!-- Flame tips -->
  <path d="M14 12 Q13 8 14 4 Q15 8 14 12 Z" fill="#81d4fa" opacity="0.8"/>
  <path d="M18 12 Q19 8 18 4 Q17 8 18 12 Z" fill="#81d4fa" opacity="0.8"/>
  
  <!-- Sparks -->
  <circle cx="14" cy="6" r="0.5" fill="#e3f2fd"/>
  <circle cx="18" cy="5" r="0.3" fill="#e3f2fd"/>
  <circle cx="16" cy="4" r="0.4" fill="#e3f2fd"/>
</svg> 